<?xml version="1.0" encoding="UTF-8"?>
<svg version="1.1" xmlns="http://www.w3.org/2000/svg" width="2048" height="2048">
<path d="M0 0 C3.37257056 2.92446678 6.6936658 5.90213636 9.98828125 8.9140625 C11.76163096 10.51161928 13.55121482 12.02133492 15.421875 13.5 C18.32622995 16.01710763 20.72091952 18.67453269 23.203125 21.59765625 C25.53569461 24.28459701 27.97889312 26.85060683 30.421875 29.4375 C65.00842555 66.76730728 90.93298327 119.95225743 89.36181641 171.50195312 C88.50776265 187.82386943 81.20517868 201.96729541 69.234375 212.9375 C61.56835558 218.9375 61.56835558 218.9375 58.234375 218.9375 C66.35789591 235.1446228 75.69521401 250.5410796 85.234375 265.9375 C85.83169434 266.90445801 86.42901367 267.87141602 87.04443359 268.86767578 C92.19700397 277.19221728 97.37749364 285.43808816 103.25390625 293.27734375 C104.72385546 295.25177258 106.15258183 297.23488463 107.55859375 299.25390625 C112.93734234 306.96298352 118.62702391 314.23630762 124.81689453 321.31518555 C125.83354335 322.47874589 126.84426104 323.64749872 127.85107422 324.81958008 C145.75168906 345.55046139 166.14281175 362.70000515 191.234375 373.9375 C192.13671875 374.38609375 193.0390625 374.8346875 193.96875 375.296875 C199.17185356 376.31757953 203.81682683 374.86917417 208.921875 373.6875 C223.11500216 370.62455493 237.65202549 368.05372124 252.234375 368.9375 C252.88776855 368.97327148 253.54116211 369.00904297 254.21435547 369.04589844 C288.52323461 371.12891038 316.04768446 386.67754499 339.359375 411.1875 C387.02423807 465.01986133 397.26381045 552.53475442 394.234375 621.9375 C394.06076023 623.6464324 393.87083406 625.35383368 393.66015625 627.05859375 C392.90285781 630.7262465 392.90285781 630.7262465 394.234375 632.9375 C394.2510632 638.14861034 393.90018494 643.36002569 393.609375 648.5625 C393.56525482 649.3577005 393.52113464 650.152901 393.47567749 650.97219849 C388.08121625 744.95307976 361.24803578 844.43067975 271.234375 982.9375 C270.22890625 984.18660156 270.22890625 984.18660156 269.203125 985.4609375 C259.99492218 996.83773881 250.39412769 1007.84864641 240.34301758 1018.48730469 C237.30517055 1021.70368744 234.33354594 1024.96029346 231.41015625 1028.28125 C224.89642914 1035.54020915 217.94504464 1042.37583902 211.04125977 1049.26098633 C208.67022937 1051.6266419 206.30461078 1053.99761514 203.93945312 1056.36914062 C202.41177896 1057.89615417 200.88379472 1059.42285757 199.35546875 1060.94921875 C198.311381 1061.99634285 198.311381 1061.99634285 197.24620056 1063.06462097 C193.28216068 1067.01004098 189.21415409 1070.77342706 184.9801178 1074.42756653 C183.01884793 1076.12391437 181.11659441 1077.87276308 179.234375 1079.65625 C178.574375 1080.27886719 177.914375 1080.90148438 177.234375 1081.54296875 C176.244375 1082.48076172 176.244375 1082.48076172 175.234375 1083.4375 C170.00188786 1088.3940552 164.69295438 1093.23062585 159.234375 1097.9375 C158.6681543 1098.42589355 158.10193359 1098.91428711 157.51855469 1099.41748047 C155.88451183 1100.82275733 154.24754988 1102.22454287 152.609375 1103.625 C151.39187774 1104.66660899 150.17443132 1105.70827741 148.95703125 1106.75 C148.34230957 1107.2759375 147.72758789 1107.801875 147.09423828 1108.34375 C145.26210592 1109.91373688 143.43327023 1111.48747431 141.60546875 1113.0625 C134.56483246 1119.12564429 127.47917655 1125.11806646 120.234375 1130.9375 C119.63995605 1131.41703125 119.04553711 1131.8965625 118.43310547 1132.390625 C116.5173334 1133.93297974 114.59554234 1135.46750786 112.671875 1137 C112.0634375 1137.48992432 111.455 1137.97984863 110.828125 1138.48461914 C106.46424763 1141.9375 106.46424763 1141.9375 104.234375 1141.9375 C103.904375 1142.5975 103.574375 1143.2575 103.234375 1143.9375 C98.82354657 1148.15709848 93.88061332 1151.80704524 88.984375 1155.4375 C88.30109131 1155.94667969 87.61780762 1156.45585938 86.91381836 1156.98046875 C84.68955855 1158.63582507 82.46211358 1160.2868291 80.234375 1161.9375 C79.46947754 1162.50597656 78.70458008 1163.07445312 77.91650391 1163.66015625 C46.92259931 1186.68824743 15.09029378 1208.6925585 -18.14013672 1228.37841797 C-20.79256182 1229.95349577 -23.43774554 1231.54020818 -26.08203125 1233.12890625 C-147.35868344 1305.75674678 -147.35868344 1305.75674678 -204.01171875 1292.6484375 C-248.36844195 1281.19748201 -289.98282509 1258.32077499 -327.765625 1232.9375 C-328.53213379 1232.4233252 -329.29864258 1231.90915039 -330.08837891 1231.37939453 C-340.83320433 1224.14884595 -351.41334276 1216.72017153 -361.765625 1208.9375 C-362.30848145 1208.52967285 -362.85133789 1208.1218457 -363.41064453 1207.70166016 C-380.64359212 1194.70503656 -397.39494039 1180.96466367 -413.15307617 1166.20874023 C-415.83386043 1163.70045323 -418.55092529 1161.25768394 -421.34008789 1158.87011719 C-426.34094679 1154.50046409 -431.01819421 1149.82856176 -435.70703125 1145.12890625 C-436.63353989 1144.20335434 -437.56004852 1143.27780243 -438.51463318 1142.32420349 C-440.46344861 1140.37685145 -442.41047237 1138.42773087 -444.35620117 1136.47729492 C-446.82926361 1133.99853605 -449.30679033 1131.52429569 -451.78569126 1129.0513773 C-454.17858701 1126.66299855 -456.56762818 1124.2707792 -458.95703125 1121.87890625 C-459.83637833 1121.0015834 -460.7157254 1120.12426056 -461.62171936 1119.22035217 C-466.00947122 1114.81602727 -470.26404351 1110.35577179 -474.30836487 1105.63287354 C-476.51640661 1103.06404217 -478.83184576 1100.60364438 -481.140625 1098.125 C-485.41081759 1093.50316169 -489.44787873 1088.74326052 -493.39453125 1083.83984375 C-496.08393671 1080.54786968 -498.85732896 1077.33745032 -501.640625 1074.125 C-507.10925816 1067.78970548 -512.30405064 1061.27163948 -517.42871094 1054.65673828 C-518.72294416 1052.9923865 -520.02704466 1051.33643288 -521.3359375 1049.68359375 C-533.42399391 1034.41554657 -545.26588722 1018.97186395 -556.35839844 1002.9621582 C-557.34104758 1001.54836408 -558.32912015 1000.13833087 -559.32128906 998.73120117 C-564.46012895 991.4397451 -569.44123311 984.04563964 -574.390625 976.625 C-575.04875687 975.63830826 -575.04875687 975.63830826 -575.72018433 974.63168335 C-587.38997152 957.11282637 -598.37527736 939.24468111 -608.765625 920.9375 C-609.16281738 920.24221191 -609.56000977 919.54692383 -609.96923828 918.83056641 C-628.937146 885.56777518 -645.86338802 851.01975426 -658.765625 814.9375 C-659.17619141 813.79877441 -659.58675781 812.66004883 -660.00976562 811.48681641 C-676.77353214 764.5366823 -700.10004295 691.96302959 -678.765625 643.9375 C-677.115625 644.2675 -675.465625 644.5975 -673.765625 644.9375 C-673.78657227 646.07775635 -673.80751953 647.2180127 -673.82910156 648.39282227 C-675.30168965 736.6507125 -644.80854752 817.43921912 -587.765625 920.9375 C-587.20649414 921.88061035 -586.64736328 922.8237207 -586.07128906 923.79541016 C-567.76636645 954.62953404 -547.29669172 984.27763075 -525.765625 1012.9375 C-525.12093262 1013.79617676 -524.47624023 1014.65485352 -523.81201172 1015.53955078 C-515.4724237 1026.62202627 -506.97660146 1037.5493211 -498.15283203 1048.25048828 C-496.9001251 1049.77393159 -495.6583724 1051.30636635 -494.41796875 1052.83984375 C-485.38892988 1063.99914588 -475.9202714 1074.76799071 -466.1796875 1085.30859375 C-464.17438365 1087.49236315 -462.2069643 1089.69713925 -460.265625 1091.9375 C-450.48526715 1103.17159197 -440.10972052 1113.75086929 -429.56713867 1124.26635742 C-427.06898532 1126.75911995 -424.57626302 1129.25722475 -422.08398438 1131.75585938 C-420.47427909 1133.36490428 -418.86426385 1134.97363918 -417.25390625 1136.58203125 C-416.5203743 1137.31758743 -415.78684235 1138.05314362 -415.03108215 1138.81098938 C-410.97576636 1142.84816447 -406.82989951 1146.71937971 -402.49072266 1150.45051575 C-400.09401301 1152.5164101 -397.77718865 1154.66554229 -395.453125 1156.8125 C-390.96063862 1160.90949927 -386.34655218 1164.79870426 -381.61328125 1168.61328125 C-379.16666906 1170.61017323 -376.76978763 1172.65277623 -374.38330078 1174.72070312 C-325.7811118 1216.6543971 -260.4844078 1261.18478369 -196.765625 1273.9375 C-196.09740723 1274.07510742 -195.42918945 1274.21271484 -194.74072266 1274.35449219 C-178.34227294 1277.55438628 -161.50857046 1275.13951676 -145.765625 1269.9375 C-144.59604248 1269.55513184 -144.59604248 1269.55513184 -143.40283203 1269.16503906 C-127.65604531 1263.92721152 -112.69695686 1257.14269639 -97.765625 1249.9375 C-96.73614746 1249.4420166 -95.70666992 1248.9465332 -94.64599609 1248.43603516 C-79.67444729 1241.19065709 -65.13633896 1233.30598805 -50.765625 1224.9375 C-49.69940918 1224.31858887 -48.63319336 1223.69967773 -47.53466797 1223.06201172 C-15.24854888 1204.27452476 15.88428423 1183.702388 46.234375 1161.9375 C46.97333008 1161.40962891 47.71228516 1160.88175781 48.47363281 1160.33789062 C57.07501438 1154.19044322 65.59217796 1147.96725828 73.94140625 1141.48046875 C79.6648472 1137.041054 85.48127115 1132.72136045 91.29150391 1128.39648438 C92.67675727 1127.35623882 94.05312856 1126.30412116 95.42333984 1125.24414062 C96.49575928 1124.41946289 96.49575928 1124.41946289 97.58984375 1123.578125 C98.23977295 1123.07313477 98.88970215 1122.56814453 99.55932617 1122.04785156 C101.234375 1120.9375 101.234375 1120.9375 103.234375 1120.9375 C103.46253906 1120.36386719 103.69070313 1119.79023437 103.92578125 1119.19921875 C105.58837097 1116.32566817 107.56538903 1114.80302841 110.171875 1112.75 C111.66074219 1111.56277344 111.66074219 1111.56277344 113.1796875 1110.3515625 C114.18773437 1109.55492187 115.19578125 1108.75828125 116.234375 1107.9375 C124.07589112 1101.60484704 131.76480192 1095.11069963 139.39306641 1088.52441406 C141.23598129 1086.93611563 143.08433474 1085.3543421 144.93359375 1083.7734375 C153.1778417 1076.70462632 161.17778389 1069.41537403 169.07080078 1061.95751953 C170.6779392 1060.45701589 172.29821903 1058.97056211 173.92529297 1057.49169922 C183.09803474 1049.15018938 191.88405711 1040.4408603 200.63867188 1031.66357422 C203.12255949 1029.17428685 205.61180183 1026.69044298 208.1015625 1024.20703125 C209.70605018 1022.60188331 211.31022792 1020.9964255 212.9140625 1019.390625 C214.01269119 1018.29503265 214.01269119 1018.29503265 215.1335144 1017.17730713 C219.14763417 1013.14506689 222.99618331 1009.02327759 226.70343018 1004.70655823 C229.09614203 1001.94169921 231.60832507 999.29143991 234.109375 996.625 C238.59179774 991.80648289 242.8487323 986.86567067 246.96875 981.73046875 C248.99339321 979.23457238 251.06731488 976.79007768 253.16577148 974.35620117 C293.86252543 927.02653099 321.18266516 870.63997215 341.234375 811.9375 C341.60626953 810.86902832 341.97816406 809.80055664 342.36132812 808.69970703 C360.61320843 756.02838579 370.67899428 700.59881276 373.83984375 645.0234375 C374.58194651 632.58992849 374.58194651 632.58992849 376.234375 630.9375 C375.91395628 629.60100431 375.57803501 628.26820909 375.234375 626.9375 C375.13829006 625.45294199 375.08924066 623.96490594 375.07666016 622.47729492 C375.06625702 621.59549057 375.05585388 620.71368622 375.0451355 619.80516052 C375.03797516 618.85238724 375.03081482 617.89961395 375.0234375 616.91796875 C374.99784767 614.85773759 374.97144805 612.79751637 374.94433594 610.73730469 C374.93108276 609.65783569 374.91782959 608.5783667 374.9041748 607.46618652 C374.15012095 551.22856206 369.14525656 485.27769084 335.234375 437.9375 C334.20570313 436.48537109 334.20570313 436.48537109 333.15625 435.00390625 C315.26094609 410.44479162 292.80729569 395.34147456 262.78515625 390.12109375 C222.83605872 384.15511958 182.40860821 399.82507117 147.45800781 417.796875 C145.90516038 418.59341686 144.34959229 419.38466727 142.79199219 420.171875 C111.98347231 435.74618577 83.72716582 455.5609987 57.07958984 477.42871094 C55.45717244 478.75532374 53.82503855 480.07003481 52.19140625 481.3828125 C46.2457538 486.17022097 40.59348698 491.19907123 35 496.38671875 C32.79381553 498.42151883 30.56805239 500.41396238 28.296875 502.375 C18.10658268 511.26834603 8.43162844 520.6371531 -1.140625 530.1875 C-1.66245361 530.70674042 -2.18428223 531.22598083 -2.72192383 531.76095581 C-8.03892002 537.05716617 -13.27394101 542.37605703 -18.15576172 548.08251953 C-21.04081056 551.40684484 -24.10681455 554.56204131 -27.140625 557.75 C-32.22626119 563.1299857 -37.05641036 568.58253788 -41.66796875 574.375 C-43.89780361 577.09896959 -46.24516618 579.67085185 -48.640625 582.25 C-52.90291767 586.88177934 -56.80812993 591.70064573 -60.6574707 596.67285156 C-63.6380293 600.51947908 -66.6914829 604.2792258 -69.828125 608 C-74.1000697 613.08725275 -78.17288266 618.30504683 -82.19921875 623.5859375 C-84.85325384 627.06406121 -87.55627204 630.50239359 -90.265625 633.9375 C-104.0206769 651.40373946 -117.46080461 669.12659071 -130.765625 686.9375 C-132.70210927 689.5215954 -134.64018014 692.10449988 -136.578125 694.6875 C-137.60549487 696.05727207 -138.63283846 697.42706386 -139.66015625 698.796875 C-154.71289062 718.8671875 -154.71289062 718.8671875 -169.765625 738.9375 C-170.26030273 739.59709717 -170.75498047 740.25669434 -171.26464844 740.9362793 C-172.26779955 742.27375972 -173.27105528 743.61116169 -174.27441406 744.94848633 C-176.72705267 748.21774392 -179.17804562 751.48820399 -181.625 754.76171875 C-188.0526736 763.35522703 -194.53788915 771.9033662 -201.04931641 780.43359375 C-204.51906617 784.98102463 -207.97393026 789.53759421 -211.390625 794.125 C-216.84531305 801.42220672 -222.46256526 808.59363034 -228.07275391 815.77148438 C-229.60083924 817.72665788 -231.12675284 819.68350522 -232.65234375 821.640625 C-242.63924716 834.42811725 -252.86817246 847.0143228 -263.41503906 859.34423828 C-264.7633648 860.93483368 -266.09035319 862.54123099 -267.4140625 864.15234375 C-288.85868634 890.04392145 -318.56506897 920.625953 -354.1472168 924.17504883 C-397.63808496 926.57197627 -437.73654236 896.80206568 -471.40722656 872.62841797 C-473.74605668 870.95153004 -476.0946501 869.28915397 -478.4453125 867.62890625 C-487.89344118 860.92336215 -497.01993527 853.91393087 -505.91015625 846.484375 C-507.65478387 845.0299065 -509.41192699 843.59210502 -511.171875 842.15625 C-518.528716 836.08068072 -525.37193896 829.53464667 -532.140625 822.8125 C-532.97303711 821.98935303 -533.80544922 821.16620605 -534.66308594 820.31811523 C-540.1280305 814.82526597 -545.04336115 809.07657334 -549.765625 802.9375 C-550.24757324 802.32551758 -550.72952148 801.71353516 -551.22607422 801.08300781 C-568.0089445 779.67276178 -580.25918684 755.34757715 -585.21557617 728.50024414 C-586.319841 722.59121705 -586.319841 722.59121705 -590.453125 718.375 C-594.06583872 715.54200866 -596.96725515 712.5845567 -599.9296875 709.0859375 C-601.92367717 706.75254533 -603.99723841 704.50611914 -606.078125 702.25 C-628.08559969 677.7231511 -660.52196475 634.06429499 -658.765625 598.9375 C-659.425625 598.9375 -660.085625 598.9375 -660.765625 598.9375 C-658.14394005 670.07296096 -639.05729285 736.1908153 -590.11328125 789.37109375 C-588.06238402 791.61308956 -586.06084967 793.88541029 -584.078125 796.1875 C-579.13695982 801.85598623 -573.81631075 806.96120859 -568.12109375 811.86328125 C-565.74919445 813.9519687 -563.43644352 816.09299696 -561.12695312 818.25 C-554.8755718 824.08559517 -548.44203408 829.58850657 -541.765625 834.9375 C-540.07740436 836.33246165 -538.38992426 837.72831994 -536.703125 839.125 C-523.80392106 849.6605714 -510.54525892 859.66985157 -496.98925781 869.34179688 C-494.80810365 870.90701686 -492.64042905 872.4891128 -490.4765625 874.078125 C-479.17000144 882.36396648 -467.56668161 890.15607365 -455.87109375 897.88037109 C-452.7975788 899.91633312 -449.7332263 901.96533301 -446.671875 904.01953125 C-417.09905867 923.85746414 -386.93364323 942.70335352 -355.765625 959.9375 C-354.88841797 960.42492676 -354.01121094 960.91235352 -353.10742188 961.41455078 C-285.89832487 998.7128635 -208.00165798 1041.32286368 -129.35058594 1018.96679688 C-114.30791084 1014.4340843 -99.88110078 1008.81683831 -85.765625 1001.9375 C-85.07500977 1001.60395508 -84.38439453 1001.27041016 -83.67285156 1000.92675781 C-79.00270297 998.66264815 -74.37766674 996.31738305 -69.765625 993.9375 C-69.01958008 993.55480957 -68.27353516 993.17211914 -67.50488281 992.77783203 C-39.02163144 978.13486754 -12.21242728 960.74263397 14.33544922 942.88330078 C17.40849382 940.82062894 20.49338696 938.77673445 23.58203125 936.73754883 C32.26756776 930.99531157 40.75742478 924.98196956 49.234375 918.9375 C49.85731445 918.49374023 50.48025391 918.04998047 51.12207031 917.59277344 C56.23729254 913.94772854 61.34962622 910.29883499 66.44140625 906.62109375 C73.86362314 901.26861886 81.37492039 896.05007207 88.921875 890.875 C89.89125 890.20702393 90.860625 889.53904785 91.859375 888.85083008 C92.77074219 888.22845459 93.68210937 887.6060791 94.62109375 886.96484375 C95.43795654 886.40531006 96.25481934 885.84577637 97.09643555 885.26928711 C99.234375 883.9375 99.234375 883.9375 102.234375 882.9375 C102.95882812 882.20015625 103.68328125 881.4628125 104.4296875 880.703125 C107.72171318 877.45694926 111.21276099 875.14152837 115.109375 872.6875 C115.86331543 872.20788818 116.61725586 871.72827637 117.39404297 871.23413086 C119.66886789 869.79331285 121.95060908 868.36409244 124.234375 866.9375 C124.85634766 866.5451416 125.47832031 866.1527832 126.11914062 865.74853516 C163.43166829 842.28812774 202.45350884 830.34504231 245.421875 822.25 C246.4396402 822.057547 247.4574054 821.86509399 248.50601196 821.66680908 C259.24169563 819.6465821 269.98518735 817.7490018 280.796875 816.1796875 C281.64956467 816.0547139 282.50225433 815.9297403 283.38078308 815.80097961 C289.34594734 814.96563578 295.20823844 814.55645624 301.234375 814.9375 C301.234375 817.25 301.234375 817.25 300.234375 819.9375 C293.60807919 822.8399924 286.58513242 824.66682398 279.64453125 826.66796875 C277.81939247 827.19914055 277.81939247 827.19914055 275.9573822 827.74104309 C270.79333347 829.24390436 265.62727832 830.73979188 260.46118164 832.2355957 C206.9906894 847.73404036 160.3008663 865.49169475 114.38867188 897.45654297 C112.17276288 898.97985484 109.93331421 900.46260772 107.6875 901.94140625 C104.08694937 904.32956632 100.62521741 906.85400524 97.18652344 909.46826172 C93.96678335 911.89152283 90.66069412 914.18982629 87.359375 916.5 C80.58654684 921.25695372 73.86000918 926.07317255 67.17822266 930.95727539 C54.40635932 940.24215428 41.24911223 948.99772042 28.109375 957.75 C27.39615082 958.22517059 26.68292664 958.70034119 25.9480896 959.18991089 C6.70033512 972.00362642 -12.75426591 984.34479569 -32.765625 995.9375 C-33.44157715 996.33211426 -34.1175293 996.72672852 -34.81396484 997.13330078 C-77.65264234 1022.09362711 -125.27412543 1045.47243424 -175.890625 1045.25 C-176.56537872 1045.24784485 -177.24013245 1045.2456897 -177.93533325 1045.24346924 C-189.45854009 1045.18476653 -200.49762214 1044.36693242 -211.765625 1041.9375 C-212.64041504 1041.75477539 -213.51520508 1041.57205078 -214.41650391 1041.38378906 C-241.83410403 1035.50755522 -268.2243994 1025.34163503 -293.765625 1013.9375 C-294.80187012 1013.47843262 -295.83811523 1013.01936523 -296.90576172 1012.54638672 C-309.59505857 1006.90779644 -321.9846194 1000.87633288 -334.20898438 994.29589844 C-337.01088715 992.80718692 -339.83087585 991.35771757 -342.65625 989.9140625 C-356.32358558 982.92192043 -369.66075798 975.51292281 -382.85449219 967.66503906 C-385.72706644 965.96038162 -388.60803381 964.27091648 -391.4921875 962.5859375 C-402.65869819 956.05088621 -413.65829548 949.29675483 -424.56347656 942.33544922 C-426.69362317 940.98320759 -428.83240868 939.64630532 -430.9765625 938.31640625 C-431.6586377 937.89319092 -432.34071289 937.46997559 -433.04345703 937.03393555 C-434.26982923 936.27439852 -435.49719061 935.51645331 -436.72607422 934.76098633 C-443.85722439 930.33623653 -450.79757726 925.61286538 -457.765625 920.9375 C-458.40135437 920.51110229 -459.03708374 920.08470459 -459.69207764 919.64538574 C-475.56273639 908.99414936 -491.41806732 898.33672334 -506.765625 886.9375 C-508.34150391 885.76767578 -508.34150391 885.76767578 -509.94921875 884.57421875 C-511.87887058 883.13146446 -513.80479387 881.68370701 -515.7265625 880.23046875 C-517.97431203 878.53454462 -520.22883442 876.8506166 -522.4921875 875.17578125 C-531.52017865 868.48041823 -540.3085755 861.54247257 -548.98486328 854.39794922 C-550.57955225 853.09010312 -552.18554454 851.7960679 -553.79296875 850.50390625 C-559.68807793 845.75906228 -565.30236248 840.78337954 -570.84765625 835.640625 C-573.55218042 833.13522912 -576.27600887 830.65441315 -579.015625 828.1875 C-580.21058594 827.11048828 -580.21058594 827.11048828 -581.4296875 826.01171875 C-584.36514203 823.40515294 -587.3553437 820.86546243 -590.3671875 818.34765625 C-591.765625 816.9375 -591.765625 816.9375 -591.765625 814.9375 C-592.36117187 814.67839844 -592.95671875 814.41929687 -593.5703125 814.15234375 C-595.94254682 812.83959487 -597.16980809 811.57968073 -598.890625 809.5 C-601.65640888 806.21746669 -604.51376969 803.06557797 -607.453125 799.9375 C-613.76285074 793.00541892 -619.31088592 785.55264186 -624.765625 777.9375 C-625.19875 777.33454102 -625.631875 776.73158203 -626.078125 776.11035156 C-651.32196439 740.59148067 -665.26681888 698.09465173 -669.765625 654.9375 C-669.87648438 653.98746094 -669.98734375 653.03742187 -670.1015625 652.05859375 C-671.62178096 636.63043072 -671.85637307 620.51508596 -669.453125 605.1875 C-669.27668457 604.05513916 -669.27668457 604.05513916 -669.09667969 602.89990234 C-668.30570539 598.47874036 -666.96088356 594.8483808 -664.765625 590.9375 C-663.775625 590.9375 -662.785625 590.9375 -661.765625 590.9375 C-661.75104248 590.19290527 -661.73645996 589.44831055 -661.72143555 588.68115234 C-660.81698585 547.34492507 -660.81698585 547.34492507 -647.765625 530.9375 C-646.115625 531.2675 -644.465625 531.5975 -642.765625 531.9375 C-643.24246406 536.78536376 -643.84328198 541.528706 -644.765625 546.3125 C-652.23102613 586.31367919 -637.81189221 625.81312587 -619.765625 660.9375 C-619.33491699 661.77684082 -618.90420898 662.61618164 -618.46044922 663.48095703 C-612.15818666 675.60762104 -604.7062099 686.82955069 -596.765625 697.9375 C-596.21487305 698.71593262 -595.66412109 699.49436523 -595.09667969 700.29638672 C-593.50133591 702.54222697 -591.88787094 704.77353726 -590.265625 707 C-589.78561035 707.67305176 -589.3055957 708.34610352 -588.81103516 709.03955078 C-586.13716556 712.78607208 -586.13716556 712.78607208 -582.12890625 714.80078125 C-579.2048143 716.20724531 -579.11065567 716.96862428 -578.02734375 719.9453125 C-577.48719278 721.64622418 -576.96340149 723.35238845 -576.453125 725.0625 C-573.59103461 733.91756433 -570.08501723 742.03157536 -565.68701172 750.22119141 C-564.8452468 751.78918489 -564.02498012 753.36867094 -563.20703125 754.94921875 C-551.36215245 777.45127847 -533.48383838 800.71363292 -513.8359375 817.1796875 C-511.36652003 819.27636271 -509.0127154 821.48138677 -506.640625 823.6875 C-500.92030155 828.89135102 -494.94603974 833.68339522 -488.80419922 838.37890625 C-487.39173658 839.45880583 -485.98209021 840.54239514 -484.57470703 841.62890625 C-471.92597446 851.3813711 -458.88075175 860.40547993 -445.51171875 869.140625 C-443.06829172 870.7394535 -440.63405964 872.35102605 -438.203125 873.96875 C-397.47365732 900.9333508 -397.47365732 900.9333508 -350.2265625 905.34765625 C-329.47767273 899.7614167 -313.26869031 884.68333504 -298.453125 869.9375 C-297.94088379 869.42911591 -297.42864258 868.92073181 -296.90087891 868.39694214 C-290.75440694 862.27327049 -285.00696239 856.02311634 -279.61645508 849.21484375 C-277.765625 846.9375 -277.765625 846.9375 -276.01831055 845.30053711 C-274.45592348 843.90905633 -274.45592348 843.90905633 -274.765625 841.19140625 C-276.04140348 837.04014267 -278.11248712 834.26391185 -280.765625 830.875 C-281.77614196 829.54142607 -282.78523539 828.20677238 -283.79296875 826.87109375 C-284.29683105 826.20835449 -284.80069336 825.54561523 -285.31982422 824.86279297 C-288.96737083 820.00555681 -292.352944 814.96106188 -295.765625 809.9375 C-296.15041016 809.3712793 -296.53519531 808.80505859 -296.93164062 808.22167969 C-346.68746411 734.80944585 -392.0566717 652.02934717 -411.765625 564.9375 C-411.95995117 564.10798828 -412.15427734 563.27847656 -412.35449219 562.42382812 C-422.47205504 518.88122778 -423.34190664 468.63159104 -399.79296875 429.08203125 C-396.5282888 424.01831765 -393.03171914 419.20359414 -388.765625 414.9375 C-389.10558167 411.7768137 -390.19760641 410.13688152 -392.43017578 407.94824219 C-392.98810822 407.39376404 -393.54604065 406.83928589 -394.12088013 406.26800537 C-395.03170853 405.38510834 -395.03170853 405.38510834 -395.9609375 404.484375 C-396.58660614 403.86532288 -397.21227478 403.24627075 -397.85690308 402.60845947 C-399.86117352 400.6275847 -401.87528312 398.65710431 -403.890625 396.6875 C-406.52199036 394.10275835 -409.14911041 391.51376163 -411.7734375 388.921875 C-412.40132172 388.30244522 -413.02920593 387.68301544 -413.67611694 387.04481506 C-417.91540674 382.84071507 -421.92377012 378.5090602 -425.765625 373.9375 C-427.13767091 372.45559276 -428.51225549 370.97602727 -429.890625 369.5 C-436.33119572 362.36464168 -442.03217597 354.64262393 -447.765625 346.9375 C-448.43722656 346.0403125 -449.10882812 345.143125 -449.80078125 344.21875 C-467.41030186 319.90678774 -480.89920261 290.63945734 -485.765625 260.9375 C-485.89453125 260.18984375 -486.0234375 259.4421875 -486.15625 258.671875 C-488.10842803 245.62310606 -488.10842803 245.62310606 -485.765625 240.9375 C-483.16822475 241.91156682 -482.00530423 242.42256079 -480.81176758 244.98681641 C-480.48921997 246.25017822 -480.48921997 246.25017822 -480.16015625 247.5390625 C-479.90387451 248.49192139 -479.64759277 249.44478027 -479.38354492 250.42651367 C-479.11775635 251.46138916 -478.85196777 252.49626465 -478.578125 253.5625 C-466.9053322 295.99480858 -446.54939796 333.69586247 -416.55078125 365.92578125 C-414.65632624 367.96263647 -412.79243644 370.02213841 -410.94921875 372.10546875 C-410.49796631 372.61271484 -410.04671387 373.11996094 -409.58178711 373.64257812 C-408.33762705 375.04390254 -407.09834803 376.44955617 -405.859375 377.85546875 C-403.85877098 380.15350787 -403.85877098 380.15350787 -400.765625 380.9375 C-397.9356495 380.0502438 -397.9356495 380.0502438 -394.828125 378.6875 C-376.90598234 371.50267666 -356.18950834 368.53018689 -337.71923828 375.73583984 C-305.49104389 389.7299605 -284.43477604 418.9870907 -271.74511719 450.80810547 C-271.07714441 452.51473922 -270.42003934 454.22562142 -269.765625 455.9375 C-262.66616559 456.17219287 -256.22433771 455.29083703 -249.265625 453.9375 C-242.30691229 452.58416297 -235.86508441 451.70280713 -228.765625 451.9375 C-228.50390625 454.25390625 -228.50390625 454.25390625 -228.765625 456.9375 C-238.73644972 466.09805454 -256.95255507 472.69944362 -270.47265625 472.2265625 C-274.6757892 471.69669565 -278.25293807 470.52146538 -281.2578125 467.375 C-283.43646127 463.85303929 -284.61385559 460.09195556 -285.953125 456.1875 C-291.96114723 439.37853892 -299.99170917 424.45644254 -311.765625 410.9375 C-312.095625 410.9375 -312.425625 410.9375 -312.765625 410.9375 C-312.91257812 411.55496094 -313.05953125 412.17242188 -313.2109375 412.80859375 C-315.70900606 422.24095607 -320.33994453 430.59438555 -328.765625 435.9375 C-333.72091904 438.22455879 -338.26971474 439.36026233 -343.765625 438.9375 C-343.765625 439.5975 -343.765625 440.2575 -343.765625 440.9375 C-342.88003906 441.32615234 -342.88003906 441.32615234 -341.9765625 441.72265625 C-339.59865107 443.02924716 -338.22115072 444.38295731 -336.390625 446.375 C-331.2415418 451.64781348 -325.50802418 456.05673342 -319.65087891 460.50537109 C-318.40499871 461.45180119 -317.16240992 462.40258155 -315.92333984 463.35791016 C-306.65925213 470.4903942 -297.14091403 476.55172467 -286.765625 481.9375 C-286.08145508 482.30053223 -285.39728516 482.66356445 -284.69238281 483.03759766 C-250.56805546 500.96987631 -210.86572717 508.59578929 -173.265625 515.4375 C-172.35576843 515.60348694 -171.44591187 515.76947388 -170.50848389 515.94049072 C-132.643042 523.19821271 -132.643042 523.19821271 -97.328125 510.4375 C-59.12626909 480.95027119 -38.27954085 428.80976094 -28.765625 382.9375 C-28.60046387 382.18871582 -28.43530273 381.43993164 -28.26513672 380.66845703 C-20.6437211 345.22532771 -26.94157646 310.38771492 -37.78808594 276.51635742 C-38.05568222 275.66595886 -38.3232785 274.8155603 -38.59898376 273.93939209 C-39.10549814 272.33231662 -39.62247162 270.72848669 -40.15162659 269.12872314 C-41.53297327 264.71445484 -42.10694893 261.52329438 -40.765625 256.9375 C-39.26171875 255.7578125 -39.26171875 255.7578125 -37.203125 255.0625 C-18.12894648 247.70749676 -3.74798157 238.50825899 5.609375 219.5625 C14.66607362 198.35473074 12.82977079 174.25684574 4.484375 153.0625 C-6.83405317 126.90813715 -25.57075806 107.38276783 -51.765625 95.9375 C-74.13489468 87.79432354 -96.40199001 90.34590928 -117.765625 99.9375 C-123.84321846 102.79240585 -129.87645463 105.73773254 -135.91064453 108.68286133 C-181.09976367 130.72088497 -219.68752108 133.35056157 -269.17895508 126.140625 C-270.64534277 125.92706764 -272.11173276 125.71352612 -273.578125 125.5 C-274.31082611 125.39316895 -275.04352722 125.28633789 -275.7984314 125.17626953 C-304.02074609 121.07697765 -332.28732232 118.39291964 -360.765625 116.9375 C-360.435625 115.2875 -360.105625 113.6375 -359.765625 111.9375 C-347.59265884 110.07237354 -335.69075625 109.57735966 -323.390625 109.625 C-321.99265182 109.62673721 -321.99265182 109.62673721 -320.56643677 109.62850952 C-300.28277756 109.67791924 -280.25750379 111.11587004 -260.15234375 113.8046875 C-235.5629482 117.06551721 -208.83498109 119.00403735 -184.765625 111.9375 C-184.05519043 111.74446289 -183.34475586 111.55142578 -182.61279297 111.35253906 C-168.2240684 107.39734463 -155.08020159 100.54622577 -141.765625 93.9375 C-112.04205016 79.19178087 -83.18123405 69.10078841 -50.09033203 79.56616211 C-36.574906 84.21016494 -24.30553803 91.32606218 -13.765625 100.9375 C-12.56486328 101.91009766 -12.56486328 101.91009766 -11.33984375 102.90234375 C6.81541633 117.98829351 17.96859194 139.55299001 24.234375 161.9375 C24.74484375 163.71447266 24.74484375 163.71447266 25.265625 165.52734375 C30.73230175 188.02676797 28.24565438 212.09528618 16.43652344 232.08740234 C6.93153528 246.71550963 -7.87443443 256.54735024 -24.4140625 261.4921875 C-27.23268154 262.02594592 -29.9037247 262.01172796 -32.765625 261.9375 C-32.529646 262.44385986 -32.29366699 262.95021973 -32.05053711 263.47192383 C-5.59948201 320.50801283 -2.99624775 375.66843667 -24.65209961 435.12280273 C-38.7548229 472.60351534 -62.18664221 513.62161244 -99.32421875 532.21875 C-143.92279659 551.55212364 -208.30572487 525.42244026 -250.77099609 508.73168945 C-267.34857898 501.98299504 -283.38834718 494.08649674 -298.765625 484.9375 C-301.05705725 483.66624404 -303.34873077 482.39542289 -305.640625 481.125 C-321.77476889 471.98420815 -336.75538665 460.64191615 -350.37109375 448.08203125 C-352.76196705 445.94077604 -355.23719106 443.97593851 -357.765625 442 C-364.24635534 436.79676614 -369.9662566 430.83963738 -375.74804688 424.88110352 C-376.49763672 424.11467529 -377.24722656 423.34824707 -378.01953125 422.55859375 C-378.69314697 421.8617749 -379.3667627 421.16495605 -380.06079102 420.44702148 C-381.63567476 418.71652716 -381.63567476 418.71652716 -383.765625 418.9375 C-401.85957527 437.60769073 -403.9971219 472.64719401 -404.015625 497.0625 C-404.01629974 497.86328979 -404.01697449 498.66407959 -404.01766968 499.48913574 C-403.9998446 512.84895087 -403.19211214 525.77571788 -400.765625 538.9375 C-400.59933594 539.87319824 -400.43304687 540.80889648 -400.26171875 541.77294922 C-397.23653143 558.47030258 -392.71277697 574.71801417 -387.765625 590.9375 C-387.34458496 592.32267822 -387.34458496 592.32267822 -386.91503906 593.73583984 C-372.82274291 639.45387038 -351.08843923 683.94514425 -327.27099609 725.29394531 C-325.37130798 728.62995292 -323.5386818 731.99968769 -321.7109375 735.37548828 C-315.39975636 747.0245656 -308.62553642 758.37653301 -301.73925781 769.69335938 C-300.43094053 771.84389378 -299.12556538 773.99622104 -297.82324219 776.15039062 C-288.06706709 792.28465905 -277.84947513 808.03747172 -267.27758789 823.64453125 C-265.765625 825.9375 -265.765625 825.9375 -264.765625 827.9375 C-261.74929564 826.61068792 -259.92211242 825.27096277 -257.83984375 822.7265625 C-257.02749268 821.74018799 -257.02749268 821.74018799 -256.19873047 820.73388672 C-255.62268066 820.0173291 -255.04663086 819.30077148 -254.453125 818.5625 C-253.53877686 817.43932373 -253.53877686 817.43932373 -252.60595703 816.29345703 C-247.31692186 809.74185187 -242.26396896 803.0207018 -237.24633789 796.26025391 C-233.38994758 791.07110717 -229.45466676 785.96555811 -225.390625 780.9375 C-221.26861297 775.83572052 -217.26546634 770.66988119 -213.35546875 765.40234375 C-210.65239602 761.76937013 -207.8978413 758.17624199 -205.14672852 754.57958984 C-199.22097478 746.8319798 -193.34443341 739.05462973 -187.578125 731.1875 C-181.65654237 723.11095053 -175.60735565 715.14138565 -169.50341797 707.20214844 C-166.30886397 703.03908537 -163.1319427 698.86258317 -159.953125 694.6875 C-158.60026117 692.91145776 -157.24739659 691.13541609 -155.89453125 689.359375 C-153.11023776 685.70345932 -150.32650744 682.04711539 -147.54296875 678.390625 C-137.61735318 665.35397829 -127.68290247 652.328981 -117.5390625 639.4609375 C-115.72472861 637.15905692 -113.91753909 634.85189371 -112.1171875 632.5390625 C-105.97774583 624.66325876 -99.6785908 616.93176231 -93.3125 609.23828125 C-90.44023957 605.76410176 -87.59719819 602.26752664 -84.76489258 598.76074219 C-78.72255414 591.2807032 -72.54556593 583.93516261 -66.25390625 576.6640625 C-64.73972208 574.90744989 -63.23569223 573.14261772 -61.734375 571.375 C-56.06103491 564.701663 -50.28552938 558.150914 -44.3359375 551.72265625 C-42.01751077 549.21044005 -39.72994382 546.67486905 -37.453125 544.125 C-25.83689408 531.21777635 -13.7794645 518.79067827 -1.48632812 506.52783203 C1.1300814 503.91683645 3.74103046 501.3004644 6.3515625 498.68359375 C8.03874157 496.99707472 9.72623042 495.31086551 11.4140625 493.625 C12.18193085 492.85510742 12.94979919 492.08521484 13.74093628 491.29199219 C18.41360825 486.63935921 23.23412067 482.23409967 28.234375 477.9375 C29.84205873 476.48304483 31.44677215 475.02529105 33.046875 473.5625 C37.28608005 469.74079242 41.63371415 466.09269245 46.07421875 462.5078125 C48.44395314 460.59211769 50.78246791 458.64253737 53.11328125 456.6796875 C62.80812211 448.54191401 72.77151936 441.05508887 83.234375 433.9375 C84.04390625 433.380625 84.8534375 432.82375 85.6875 432.25 C97.69436494 423.99988421 109.93551899 416.40809134 122.68310547 409.35791016 C125.15226904 407.9832122 127.60283718 406.58003225 130.05078125 405.16796875 C139.74365651 399.63199932 149.66301135 394.77677136 159.859375 390.25 C161.05256348 389.72019531 162.24575195 389.19039062 163.47509766 388.64453125 C171.9576429 384.9375 171.9576429 384.9375 174.234375 384.9375 C174.234375 384.2775 174.234375 383.6175 174.234375 382.9375 C173.40292969 382.70160156 172.57148437 382.46570313 171.71484375 382.22265625 C167.62923634 380.71405374 164.21087599 378.70146876 160.546875 376.375 C159.84353027 375.93099854 159.14018555 375.48699707 158.41552734 375.02954102 C152.29953257 371.10142151 146.69407644 366.73827196 141.234375 361.9375 C140.45320313 361.26589844 139.67203125 360.59429688 138.8671875 359.90234375 C124.71769206 347.49254038 112.47546771 333.99579708 101.234375 318.9375 C100.73768311 318.27564697 100.24099121 317.61379395 99.72924805 316.93188477 C79.81316664 290.2919013 58.28384536 257.59101183 50.234375 224.9375 C50.01910156 224.17824219 49.80382813 223.41898438 49.58203125 222.63671875 C49.15069733 219.9081682 49.22126535 218.53088751 50.234375 215.9375 C53.03275747 212.69331843 56.04730012 209.82434899 59.1796875 206.91015625 C68.60818978 198.01625977 72.90517078 184.46959958 73.47265625 171.75 C74.40628844 132.14324768 57.73818923 93.8230887 35.234375 61.9375 C34.48438232 60.86532227 34.48438232 60.86532227 33.71923828 59.77148438 C26.87186386 50.0637 19.29106728 41.26028492 11.00341797 32.7578125 C9.26369217 30.96766683 7.54718712 29.15740977 5.83203125 27.34375 C-19.41887516 0.98662032 -51.19428394 -16.54119654 -86.765625 -24.0625 C-87.55348389 -24.24208252 -88.34134277 -24.42166504 -89.15307617 -24.60668945 C-120.15837257 -30.01617346 -154.76196151 -20.84107114 -182.9765625 -8.23828125 C-185.765625 -7.0625 -185.765625 -7.0625 -188.203125 -7.375 C-188.71875 -7.601875 -189.234375 -7.82875 -189.765625 -8.0625 C-189.41790208 -10.72457544 -189.09086866 -11.79819524 -186.97265625 -13.51953125 C-184.24962546 -15.06095325 -181.52457362 -16.58587961 -178.765625 -18.0625 C-177.72792969 -18.62195313 -176.69023438 -19.18140625 -175.62109375 -19.7578125 C-116.33836105 -50.53790422 -51.42453607 -42.55823674 0 0 Z M-394.765625 386.9375 C-394.18197749 390.20436686 -393.23195144 391.84887059 -390.90161133 394.18969727 C-390.3004097 394.80035538 -389.69920807 395.41101349 -389.07978821 396.04017639 C-388.42568466 396.68820724 -387.77158112 397.3362381 -387.09765625 398.00390625 C-386.42522385 398.67920883 -385.75279144 399.35451141 -385.0599823 400.05027771 C-383.63539233 401.47690865 -382.20700884 402.89976005 -380.77514648 404.3190918 C-378.59331914 406.4849173 -376.4278736 408.66618782 -374.26367188 410.84960938 C-372.8759604 412.23533744 -371.48731808 413.62013409 -370.09765625 415.00390625 C-369.45367386 415.65396133 -368.80969147 416.30401642 -368.14619446 416.97377014 C-361.94044522 423.08440086 -356.16989328 425.84420262 -347.453125 426.1875 C-339.83429459 426.04874647 -334.23090538 423.3343396 -328.66796875 418.16796875 C-324.76854904 413.59595919 -320.72778789 407.52121475 -320.79296875 401.34765625 C-323.34484094 395.02434244 -331.69261534 390.77571636 -337.72265625 388.05859375 C-356.5008433 380.19205593 -375.39500931 381.9270867 -394.765625 386.9375 Z " fill="#FAF8FB" transform="translate(1162.765625,435.0625)"/>
<path d="M0 0 C0.94875 0.04125 1.8975 0.0825 2.875 0.125 C2.41718812 5.51775461 1.23025749 8.65960753 -1.875 13.0625 C-14.66638517 32.00550742 -24.1267118 52.98755103 -33.19921875 73.89453125 C-41.82085261 93.72797081 -52.23560574 112.07020298 -64.125 130.125 C-65.022157 131.49868382 -65.91929433 132.87238049 -66.81640625 134.24609375 C-76.54499162 149.05815337 -86.87565376 163.42760888 -97.78027344 177.39575195 C-98.97918938 178.93749517 -100.15530212 180.49690938 -101.328125 182.05859375 C-103.49752574 184.5534046 -104.88621488 184.85510124 -108.125 185.125 C-109.0263926 182.13532537 -109.30122119 180.58092887 -108.15966797 177.62744141 C-107.65064941 176.75265137 -107.14163086 175.87786133 -106.6171875 174.9765625 C-106.0495166 173.98366211 -105.4818457 172.99076172 -104.89697266 171.96777344 C-104.27097168 170.9059082 -103.6449707 169.84404297 -103 168.75 C-102.039729 167.0798584 -102.039729 167.0798584 -101.06005859 165.37597656 C-99.73231686 163.06723028 -98.40043481 160.76160394 -97.06054688 158.45996094 C-94.25158189 153.62009443 -91.4994806 148.74882343 -88.75 143.875 C-87.96798218 142.49320557 -87.96798218 142.49320557 -87.17016602 141.08349609 C-78.02443278 124.90438653 -69.00742066 108.64281223 -60.25 92.25 C-59.65215698 91.14640137 -59.65215698 91.14640137 -59.04223633 90.02050781 C-56.80419955 85.78651881 -55.27883298 81.77676874 -54.125 77.125 C-78.05735598 83.52551381 -96.61860425 96.40465619 -109.3046875 117.796875 C-116.15457476 130.32070321 -119.70613617 143.02743383 -119.5625 157.3125 C-119.55347656 158.40256348 -119.54445313 159.49262695 -119.53515625 160.61572266 C-118.73136761 198.45518945 -93.58113322 231.26771915 -69.125 258.125 C-46.86278452 283.0351442 -29.04594493 308.66827027 -15.125 339.125 C-15.84218087 326.24597675 -16.78620365 313.43083714 -18.37109375 300.62890625 C-18.48339828 299.72037399 -18.59570282 298.81184174 -18.71141052 297.8757782 C-18.82509476 296.95617813 -18.93877899 296.03657806 -19.0559082 295.08911133 C-22.43769201 267.67975507 -24.69809724 240.43863434 -19.125 213.125 C-18.99109863 212.43277344 -18.85719727 211.74054688 -18.71923828 211.02734375 C-12.38580467 179.15289968 5.90813679 148.34434028 25.875 123.125 C26.5865625 122.22136719 27.298125 121.31773437 28.03125 120.38671875 C29.37662184 118.69245384 30.73135825 117.00556016 32.09765625 115.328125 C33.19689814 113.96554823 34.27268202 112.58319888 35.30859375 111.171875 C36.5625 109.5 36.5625 109.5 38.875 107.125 C41.6875 106.75 41.6875 106.75 43.875 107.125 C45.07510309 111.27030812 44.74837833 113.2111621 42.69921875 116.9765625 C42.20583008 117.90082031 41.71244141 118.82507813 41.20410156 119.77734375 C40.66237305 120.75832031 40.12064453 121.73929688 39.5625 122.75 C39.01432617 123.76964844 38.46615234 124.78929687 37.90136719 125.83984375 C36.77530934 127.9341679 35.64393842 130.02564389 34.50732422 132.11425781 C32.16857064 136.42797441 29.89766026 140.77622658 27.625 145.125 C25.38871523 149.3874636 23.14783953 153.6455157 20.828125 157.86328125 C-2.14171553 199.75046686 -8.42844617 237.75044423 -2.60449219 285.19482422 C2.62159986 328.03068457 2.62159986 328.03068457 2.875 345.125 C2.89546387 346.33236816 2.91592773 347.53973633 2.93701172 348.78369141 C3.34683275 375.48476355 1.81577339 401.75080135 -1.5 428.25 C-1.64844864 429.45503677 -1.64844864 429.45503677 -1.79989624 430.68441772 C-2.92662234 439.72292471 -4.31153514 448.6847263 -6.1015625 457.6171875 C-6.33460587 458.82944504 -6.33460587 458.82944504 -6.57235718 460.06619263 C-7.40558086 464.03729329 -8.07982263 466.43980334 -11.125 469.125 C-12.115 468.795 -13.105 468.465 -14.125 468.125 C-14.125 433.475 -14.125 398.825 -14.125 363.125 C-15.115 362.795 -16.105 362.465 -17.125 362.125 C-18.12525355 359.76985756 -18.95681839 357.48686214 -19.75 355.0625 C-28.18027529 331.20883535 -45.09045721 309.82129696 -62.07421875 291.359375 C-63.98885691 289.27333114 -65.84322958 287.14817954 -67.6875 285 C-70.06816746 282.26195751 -72.54217774 279.67312024 -75.125 277.125 C-78.32314308 273.9697439 -81.3081079 270.7034892 -84.23046875 267.29296875 C-85.57946862 265.74926787 -86.9609055 264.23365923 -88.36328125 262.73828125 C-114.07445682 235.30482597 -138.57941861 197.04140961 -138.125 158.125 C-137.65250868 150.10568173 -136.86277509 141.97658383 -135.125 134.125 C-148.59512588 144.21841858 -156.60311824 159.63019662 -159.125 176.125 C-162.37162676 220.41800942 -144.50841032 265.36920957 -120.13549805 301.83154297 C-118.88066753 304.67954438 -119.24848393 306.19335003 -120.125 309.125 C-124.80635495 307.71976201 -126.90484071 305.45505249 -129.9375 301.6875 C-130.57727783 300.89484741 -130.57727783 300.89484741 -131.22998047 300.08618164 C-132.54395381 298.44408144 -133.83767904 296.78805561 -135.125 295.125 C-136.32576172 293.57425781 -136.32576172 293.57425781 -137.55078125 291.9921875 C-143.125 284.56649645 -143.125 284.56649645 -143.125 281.125 C-143.785 281.125 -144.445 281.125 -145.125 281.125 C-164.76203766 247.71940813 -183.08307361 209.80908858 -173.625 169.875 C-167.96818826 152.70814771 -157.92534281 138.85764655 -142.59765625 129.1015625 C-139.63374042 127.93097963 -138.12251245 128.15536988 -135.125 129.125 C-134.795 129.455 -134.465 129.785 -134.125 130.125 C-133.59712891 128.92617188 -133.59712891 128.92617188 -133.05859375 127.703125 C-127.30441614 114.90270902 -121.03920648 104.2145381 -111.125 94.125 C-109.87203125 92.84882812 -109.87203125 92.84882812 -108.59375 91.546875 C-98.34090746 81.48870669 -86.39958377 74.41111354 -72.6875 70.25 C-71.97940186 70.03287354 -71.27130371 69.81574707 -70.54174805 69.59204102 C-66.88945177 68.57172357 -63.74456734 68.02389546 -59.94921875 68.2578125 C-55.66872724 68.44689005 -51.80064952 68.55269638 -48.125 66.125 C-43.00837495 59.62291184 -39.93862187 51.70377723 -36.57714844 44.20410156 C-34.66885696 40.15780497 -32.4227114 36.48176096 -29.875 32.8125 C-29.47031494 32.22791016 -29.06562988 31.64332031 -28.64868164 31.04101562 C-27.48866707 29.39201466 -26.30717381 27.75818801 -25.125 26.125 C-24.38894531 25.08601562 -23.65289063 24.04703125 -22.89453125 22.9765625 C-6.39421168 0.25576847 -6.39421168 0.25576847 0 0 Z " fill="#FAF7FB" transform="translate(698.125,785.875)"/>
<path d="M0 0 C0.66 1.32 1.32 2.64 2 4 C-0.7135965 6.7135965 -2.9355324 6.79080501 -6.69140625 7.55859375 C-8.10944068 7.85821449 -9.52723633 8.15896699 -10.94482422 8.46069336 C-12.07256256 8.69802689 -12.07256256 8.69802689 -13.2230835 8.94015503 C-39.355981 14.49584172 -64.81420527 22.5610289 -89 34 C-89.8971875 34.42249023 -90.794375 34.84498047 -91.71875 35.28027344 C-104.63635212 41.42061972 -117.01174509 48.19927041 -129 56 C-130.02383789 56.66467285 -130.02383789 56.66467285 -131.06835938 57.34277344 C-144.52401892 66.15655234 -157.08538497 76.19867902 -169 87 C-169.88558594 87.7940625 -170.77117187 88.588125 -171.68359375 89.40625 C-182.04848501 98.75470657 -192.16842177 108.31604351 -200.83984375 119.28515625 C-203.07216068 122.09069019 -205.40605484 124.78734436 -207.75 127.5 C-218.45402031 140.33152745 -227.39016515 154.70553734 -236 169 C-236.35980957 169.58652344 -236.71961914 170.17304688 -237.09033203 170.77734375 C-260.54429828 209.22857459 -272.688774 253.7898934 -279 298 C-279.13422363 298.93392578 -279.26844727 299.86785156 -279.40673828 300.83007812 C-286.82865815 355.57065165 -279.63206807 418.5879417 -245.59375 463.7265625 C-239.09238899 472.06505052 -231.80079408 479.54900392 -223.70751953 486.34838867 C-222.23828125 487.625 -222.23828125 487.625 -220 490 C-220 491.32 -220 492.64 -220 494 C-234.7726612 492.77666796 -248.34928487 477.54409548 -257.625 466.75 C-284.70306523 434.29119242 -298.97093027 390.72912816 -299.203125 348.63671875 C-299.21364647 347.34421707 -299.21364647 347.34421707 -299.22438049 346.02560425 C-299.24182378 343.24618242 -299.2482373 340.46697464 -299.25 337.6875 C-299.25067474 336.73181122 -299.25134949 335.77612244 -299.25204468 334.79147339 C-299.23368138 318.35598141 -298.421278 302.28043706 -296 286 C-295.82839355 284.84048828 -295.65678711 283.68097656 -295.47998047 282.48632812 C-290.1050344 247.42188993 -279.65317439 213.82720748 -264 182 C-263.33895264 180.64914307 -263.33895264 180.64914307 -262.66455078 179.27099609 C-253.54344513 160.80895836 -242.78137816 143.16401642 -230 127 C-229.13012578 125.86564379 -228.26171282 124.73016598 -227.39453125 123.59375 C-222.06128698 116.64773266 -216.47488276 110.06203135 -210.48828125 103.671875 C-208.41513439 101.4457644 -206.41239535 99.18752382 -204.4375 96.875 C-197.87313082 89.32126418 -190.62625952 82.46429003 -183 76 C-182.06800781 75.19046875 -181.13601563 74.3809375 -180.17578125 73.546875 C-161.33621171 57.26112036 -140.98248175 43.66873213 -119 32 C-118.33145996 31.64309082 -117.66291992 31.28618164 -116.97412109 30.91845703 C-105.98773497 25.09859735 -94.64549353 20.33786923 -83 16 C-82.1740332 15.69175293 -81.34806641 15.38350586 -80.49707031 15.06591797 C-55.22435103 5.79066144 -27.07932926 -1.10779074 0 0 Z " fill="#FAF8FB" transform="translate(910,282)"/>
<path d="M0 0 C3.23295644 2.93583877 6.40327227 5.93411409 9.5546875 8.95703125 C10.37839844 9.73949219 11.20210937 10.52195312 12.05078125 11.328125 C17.7092345 16.8296714 22.66802719 22.76781462 27.5546875 28.95703125 C28.32425781 29.89804687 29.09382813 30.8390625 29.88671875 31.80859375 C58.60980015 67.7240461 79.04984874 117.01830295 75.1796875 163.64453125 C74.90214559 166.13051382 74.67250108 167.7214041 73.5546875 169.95703125 C72.2346875 169.95703125 70.9146875 169.95703125 69.5546875 169.95703125 C68.22411815 167.29589255 68.23870542 164.71828691 68.01098633 161.78930664 C63.83657876 109.53758017 37.60131356 62.97668134 1.5546875 25.95703125 C0.65878906 25.02117187 -0.23710938 24.0853125 -1.16015625 23.12109375 C-6.883379 17.24416675 -12.93409329 11.94176917 -19.4453125 6.95703125 C-20.07405273 6.47363281 -20.70279297 5.99023438 -21.35058594 5.4921875 C-74.93609648 -35.33971697 -143.56453971 -51.82038986 -210.12109375 -43.015625 C-219.7150169 -41.60933067 -229.07813187 -39.52858022 -238.4453125 -37.04296875 C-239.39438477 -36.79562988 -240.34345703 -36.54829102 -241.32128906 -36.29345703 C-291.29276678 -23.0920368 -334.8800632 2.59274582 -375.01806641 34.48046875 C-381.91944242 39.95703125 -381.91944242 39.95703125 -386.4453125 39.95703125 C-385.61237892 33.98253236 -382.50623087 31.18807916 -378.4453125 26.95703125 C-377.68605469 26.1578125 -376.92679688 25.35859375 -376.14453125 24.53515625 C-370.27964587 18.51125484 -364.06157345 13.13131173 -357.4453125 7.95703125 C-356.82769043 7.46831543 -356.21006836 6.97959961 -355.57373047 6.47607422 C-345.24602592 -1.68107895 -334.63731902 -9.12346214 -323.4453125 -16.04296875 C-322.47319824 -16.65470947 -322.47319824 -16.65470947 -321.48144531 -17.27880859 C-235.96533809 -70.91523627 -126.8501413 -78.21394277 0 0 Z " fill="#FAF7FB" transform="translate(1159.4453125,345.04296875)"/>
<path d="M0 0 C13.56606539 11.50071889 22.71143689 29.73307338 24.8125 47.375 C25.11067734 51.62684013 25.2175479 55.86337745 25.25 60.125 C25.26023193 61.15415527 25.27046387 62.18331055 25.28100586 63.24365234 C25.12863692 76.56900843 21.42703022 89.40705814 13.1875 100.0625 C10.93958555 102.25125881 9.90201487 103.14614705 6.8125 103.375 C5.22756661 99.40786369 6.51098056 96.99294866 8.125 93.1875 C15.83547893 74.91653704 14.24254188 54.61656582 7.6796875 36.1953125 C6.52190016 33.48869706 5.24554749 30.94570358 3.8125 28.375 C3.04099609 26.97507812 3.04099609 26.97507812 2.25390625 25.546875 C-4.54953814 14.04544014 -13.39862914 7.50324217 -25.875 3.0625 C-53.39504762 -2.61799079 -79.07286079 13.80219077 -101.63354492 27.18261719 C-143.33786247 51.90982819 -191.00449004 67.80301394 -239.6875 55.5 C-259.28594902 50.22995229 -278.43336887 42.60284887 -297.375 35.375 C-309.76780494 30.65373372 -322.38284824 26.21129783 -335.8125 26.25 C-336.71226562 26.24742187 -337.61203125 26.24484375 -338.5390625 26.2421875 C-341.18428184 26.37483862 -343.5982094 26.84030096 -346.1875 27.375 C-348.52051986 27.41324623 -350.85461508 27.42074284 -353.1875 27.375 C-352.8984375 25.5078125 -352.8984375 25.5078125 -352.1875 23.375 C-338.47721485 14.74259824 -321.25413777 16.47961624 -306.06738281 19.68945312 C-293.74556523 22.62262232 -281.66095913 26.70896042 -269.58398438 30.50878906 C-237.39130511 40.63346812 -204.75390649 47.3391764 -171.1875 39.375 C-170.36169434 39.18164062 -169.53588867 38.98828125 -168.68505859 38.7890625 C-143.33350643 32.64438107 -121.58725805 19.8510232 -99.17822266 6.90405273 C-68.43590395 -10.8016266 -31.57332361 -23.43637138 0 0 Z " fill="#FAF7FB" transform="translate(1123.1875,563.625)"/>
<path d="M0 0 C-0.45117541 4.89948292 -1.53795048 7.10646099 -5 10.5625 C-21.61633816 28.20421346 -32.3500303 51.60820638 -40.625 74.125 C-40.97304688 75.05820068 -41.32109375 75.99140137 -41.6796875 76.95288086 C-48.07520999 94.85228977 -51.78971699 113.39933523 -55.0953064 132.07022095 C-58.99823928 153.85081896 -64.05397545 174.37183945 -72 195 C-72.61245008 196.60242132 -73.22457738 198.20496604 -73.83642578 199.80761719 C-76.44131328 206.61837311 -79.06173173 213.42300094 -81.70678711 220.21826172 C-92.71353754 248.53330903 -101.96089541 276.72455801 -95.69140625 307.3125 C-95.12314356 310.34323433 -94.85048587 312.93795069 -95 316 C-96.32 316.33 -97.64 316.66 -99 317 C-102.11702689 313.48195211 -103.31138736 309.54425239 -104.625 305.125 C-104.8415625 304.43019531 -105.058125 303.73539063 -105.28125 303.01953125 C-116.63857957 265.79272875 -100.46969485 224.6653729 -87.10009766 190.16210938 C-78.9341164 168.86465885 -74.48729421 146.62104684 -69.89819336 124.33666992 C-67.44553034 112.46909069 -64.79769802 100.72146465 -61.421875 89.078125 C-61.14577896 88.12277359 -60.86968292 87.16742218 -60.58522034 86.18312073 C-51.52429699 55.82020678 -33.8332946 20.48154221 -7.6875 1.375 C-4.83777173 -0.08300051 -3.15434825 -0.37109979 0 0 Z " fill="#F9F6FA" transform="translate(773,394)"/>
<path d="M0 0 C2.1875 0.3125 2.1875 0.3125 4 1 C2.9075053 15.74867849 -5.19303676 26.95332433 -15.65234375 37 C-26.50421683 46.24485693 -39.78735319 51.07944153 -54 50 C-64.95410855 48.31475253 -72.76725208 44.06544882 -80.00390625 35.7109375 C-81 34 -81 34 -81 30 C-76.98873694 28.66291231 -75.42736898 29.78693806 -71.5625 31.375 C-59.15296616 36.42916737 -48.52516804 36.10115935 -36 31 C-23.3448715 25.06740473 -13.91260648 15.50123947 -4.83984375 5.09375 C-1.50197971 1.29524654 -1.50197971 1.29524654 0 0 Z " fill="#F9F7FB" transform="translate(1005,769)"/>
<path d="M0 0 C1.23302856 -0.00809692 1.23302856 -0.00809692 2.4909668 -0.01635742 C6.1461762 -0.00964154 9.79859371 0.04231948 13.453125 0.11328125 C13.948125 2.58828125 13.948125 2.58828125 14.453125 5.11328125 C10.06232854 6.59613795 5.67047838 8.06017043 1.234375 9.40234375 C-16.439837 14.84261035 -30.73271762 23.51661839 -45.46582031 34.56152344 C-49.02527571 37.21566451 -52.64486803 39.78417113 -56.26782227 42.35058594 C-59.55292354 44.68025555 -62.81083625 47.04137629 -66.05078125 49.43359375 C-67.59106159 50.55610518 -69.13142505 51.67850259 -70.671875 52.80078125 C-71.75674194 53.61397827 -71.75674194 53.61397827 -72.86352539 54.44360352 C-73.54535889 54.93658936 -74.22719238 55.4295752 -74.9296875 55.9375 C-75.53184082 56.38182373 -76.13399414 56.82614746 -76.75439453 57.28393555 C-79.0595141 58.35046935 -80.20584103 57.95258671 -82.546875 57.11328125 C-80.87506255 43.69101561 -61.33435469 28.72824043 -51.109375 20.73828125 C-39.46853798 12.17507066 -27.46293007 6.02819982 -13.546875 2.11328125 C-12.40605469 1.74589844 -12.40605469 1.74589844 -11.2421875 1.37109375 C-7.52277693 0.31460748 -3.85380887 0.0241991 0 0 Z " fill="#F9F6FB" transform="translate(978.546875,726.88671875)"/>
<path d="M0 0 C1.67542976 0.28604898 3.34385343 0.61781233 5 1 C8.6531659 11.95949771 5.47622862 24.90358556 0.875 35.125 C-2.19056592 40.86831928 -6.42536247 45.41742039 -11 50 C-11.5775 50.58910156 -12.155 51.17820312 -12.75 51.78515625 C-25.95446871 64.19608717 -43.96074955 64.44303716 -60.94384766 64.16113281 C-63 64 -63 64 -65 63 C-64.67 61.35 -64.34 59.7 -64 58 C-62.49373047 57.65388672 -62.49373047 57.65388672 -60.95703125 57.30078125 C-41.56917359 52.73093948 -23.0933996 45.9009701 -11.62890625 28.69140625 C-6.87060656 20.82937151 -4.13481415 12.60778133 -1.796875 3.7734375 C-1 1 -1 1 0 0 Z " fill="#F9F6FA" transform="translate(1015,876)"/>
<path d="M0 0 C0.495 1.485 0.495 1.485 1 3 C-12.64377902 22.49111289 -40.61684102 32.45499665 -62.4375 39 C-63.4747522 39.31179199 -63.4747522 39.31179199 -64.53295898 39.62988281 C-68.10510701 40.644531 -71.28506386 41.22905194 -75 41 C-75.70703125 38.72265625 -75.70703125 38.72265625 -76 36 C-63.33852891 17.42717963 -32.3585506 7.2033881 -12 1 C-11.31623291 0.78520996 -10.63246582 0.57041992 -9.92797852 0.34912109 C-6.20617441 -0.78383485 -3.77116046 -1.1427759 0 0 Z " fill="#F9F7FB" transform="translate(1003,879)"/>
<path d="M0 0 C-1.5597899 3.74184754 -3.86732173 6.10902778 -6.72509766 8.95214844 C-7.20331467 9.4306575 -7.68153168 9.90916656 -8.17424011 10.4021759 C-9.74948483 11.97603195 -11.33168535 13.54269293 -12.9140625 15.109375 C-14.01023213 16.20181286 -15.10595981 17.29469434 -16.20126343 18.38800049 C-19.08039888 21.25951242 -21.96549056 24.12496654 -24.85186768 26.98919678 C-27.79809815 29.91494126 -30.73865069 32.84638014 -33.6796875 35.77734375 C-39.44758588 41.52381482 -45.22178964 47.26389806 -51 53 C-51.66 52.67 -52.32 52.34 -53 52 C-43.7838264 41.6222811 -34.00203109 31.81584829 -24.19018555 22.00488281 C-21.40712035 19.2195961 -18.63219589 16.4263564 -15.85742188 13.6328125 C-14.09163371 11.86409613 -12.32537529 10.09584909 -10.55859375 8.328125 C-9.31341225 7.07216522 -9.31341225 7.07216522 -8.04307556 5.79083252 C-7.27790115 5.02873474 -6.51272675 4.26663696 -5.72436523 3.48144531 C-5.05138901 2.80704407 -4.37841278 2.13264282 -3.68504333 1.43780518 C-2 0 -2 0 0 0 Z " fill="#F3EDF6" transform="translate(1185,920)"/>
<path d="M0 0 C1.98 0 3.96 0 6 0 C6.52992381 2.76937583 7.0492458 5.54003079 7.5625 8.3125 C7.71396484 9.09818359 7.86542969 9.88386719 8.02148438 10.69335938 C8.2293457 11.8293457 8.2293457 11.8293457 8.44140625 12.98828125 C8.57232666 13.68477783 8.70324707 14.38127441 8.83813477 15.09887695 C9 17 9 17 8 20 C6.40861915 15.82262526 5.78721942 12.46839215 6 8 C5.34 8 4.68 8 4 8 C4 15.59 4 23.18 4 31 C3.67 31 3.34 31 3 31 C2.67 21.43 2.34 11.86 2 2 C1.01 2.33 0.02 2.66 -1 3 C-0.67 2.01 -0.34 1.02 0 0 Z " fill="#E5DDEA" transform="translate(498,1026)"/>
<path d="M0 0 C-0.25561323 2.3431213 -0.59270772 4.67843403 -1 7 C-1.99 7.495 -1.99 7.495 -3 8 C-2.34 5.69 -1.68 3.38 -1 1 C-5.09125955 3.21886329 -8.07157732 5.86015272 -11.3125 9.1875 C-12.19550781 10.08855469 -13.07851563 10.98960937 -13.98828125 11.91796875 C-14.65214844 12.60503906 -15.31601562 13.29210937 -16 14 C-16.66 13.67 -17.32 13.34 -18 13 C-16.56354149 11.39490066 -15.12579294 9.79095576 -13.6875 8.1875 C-12.88699219 7.29417969 -12.08648438 6.40085937 -11.26171875 5.48046875 C-10.14216797 4.25263672 -10.14216797 4.25263672 -9 3 C-8.4740625 2.401875 -7.948125 1.80375 -7.40625 1.1875 C-5.13664998 -0.72905113 -2.84002169 -0.18933478 0 0 Z " fill="#F1E9F5" transform="translate(701,786)"/>
<path d="M0 0 C0.66 0.33 1.32 0.66 2 1 C-7.76873265 12.47826087 -7.76873265 12.47826087 -13 17 C-13.66 17 -14.32 17 -15 17 C-11.69276967 9.88867845 -6.01650648 4.859486 0 0 Z " fill="#F2EBF5" transform="translate(595,872)"/>
<path d="M0 0 C0.66 0.33 1.32 0.66 2 1 C-2.68873057 3.83791587 -6.5729651 4.42736599 -11.92578125 4.69140625 C-12.61027344 4.79324219 -13.29476562 4.89507813 -14 5 C-14.33 5.66 -14.66 6.32 -15 7 C-15.66 5.68 -16.32 4.36 -17 3 C-16.19175781 2.95101562 -15.38351562 2.90203125 -14.55078125 2.8515625 C-13.48214844 2.77679687 -12.41351562 2.70203125 -11.3125 2.625 C-9.72888672 2.52058594 -9.72888672 2.52058594 -8.11328125 2.4140625 C-5.09095643 2.01209709 -2.80546014 1.13004524 0 0 Z " fill="#EAE4EF" transform="translate(833,869)"/>
<path d="M0 0 C0.99 0.33 1.98 0.66 3 1 C2.40438884 3.06498691 1.79813145 5.12690474 1.1875 7.1875 C0.85105469 8.33605469 0.51460937 9.48460937 0.16796875 10.66796875 C-0.91888658 13.76859616 -2.20178903 16.26404005 -4 19 C-4.33 18.34 -4.66 17.68 -5 17 C-4.2578125 14.86328125 -4.2578125 14.86328125 -3.125 12.3125 C-1.3585449 8.11564632 -0.39319601 4.52175411 0 0 Z " fill="#E9E2ED" transform="translate(848,842)"/>
</svg>
